<svg width="320" height="200" viewBox="0 0 320 200" fill="none" xmlns="http://www.w3.org/2000/svg">
<mask id="mask0_17967_282027" style="mask-type:alpha" maskUnits="userSpaceOnUse" x="0" y="0" width="320" height="200">
<rect width="320" height="200" fill="#C4C4C4"/>
</mask>
<g mask="url(#mask0_17967_282027)">
<path opacity="0.1" d="M309.014 148.379C301.862 163.133 287.339 172.998 272.289 179.504C252.028 188.266 229.716 191.741 207.71 190.272C203.853 190.015 200.009 189.605 196.175 189.042C182.863 187.099 169.884 183.32 157.61 177.811C154.067 176.216 150.596 174.474 147.198 172.586C141.521 169.44 136.081 165.883 130.923 161.943C129.625 160.952 128.346 159.937 127.084 158.896C126.209 158.174 125.343 157.437 124.462 156.721C122.605 155.211 120.694 153.776 118.562 152.702C117.919 152.378 117.259 152.087 116.586 151.83C109.835 149.262 102.05 150.231 95.0219 152.234C89.6759 153.757 84.4645 155.843 79.1239 157.332C76.7484 158.014 74.3279 158.529 71.8802 158.872C66.4155 159.563 60.8659 159.076 55.6054 157.442L55.1559 157.302C54.4022 157.065 53.6547 156.806 52.9136 156.524L52.4641 156.352C51.7462 156.076 51.0437 155.779 50.3564 155.461L49.9068 155.256C49.189 154.923 48.4864 154.57 47.7991 154.199C47.5515 154.069 47.3065 153.929 47.0643 153.797C43.1538 151.613 39.5992 148.846 36.5231 145.59C36.4342 145.501 36.3508 145.41 36.2539 145.321C35.8259 144.858 35.406 144.387 34.9995 143.905C34.8487 143.727 34.698 143.55 34.55 143.367C34.0672 142.778 33.6015 142.176 33.1529 141.56C33.0856 141.472 33.021 141.38 32.9564 141.291C31.1183 138.748 29.5944 135.993 28.418 133.084C28.3803 132.995 28.3453 132.904 28.313 132.815C27.9541 131.89 27.6266 130.951 27.3305 129.996C27.2093 129.598 27.0936 129.189 26.9913 128.79C26.9563 128.672 26.924 128.551 26.8944 128.432C25.4085 122.583 25.2389 116.502 25.2389 110.456C25.2389 109.751 25.2389 109.047 25.2389 108.343C25.282 98.5639 25.4327 88.6176 26.8756 78.9728C26.8756 78.9055 26.8944 78.8382 26.9052 78.7736C27.3881 75.5266 28.0449 72.3079 28.8729 69.1314C29.7394 65.7984 30.8469 62.5327 32.1865 59.3601C35.5056 51.5538 40.332 44.4501 45.6914 37.8659C59.1909 21.2977 76.8951 7.38898 97.6168 2.18299C119.945 -3.42409 144.761 1.9488 162.772 16.2882C168.264 20.6597 173.198 25.8361 179.365 29.1874C184.749 32.1053 191.05 33.314 196.816 31.0178C201.581 29.1201 204.682 28.178 210.033 28.466C221.111 29.0927 232.033 31.3803 242.432 35.2521C242.852 35.4055 243.272 35.5643 243.689 35.7232C270.798 46.0948 294.101 66.7007 306.215 93.1802C306.536 93.8801 306.847 94.5854 307.149 95.296C314.371 112.166 316.982 131.937 309.014 148.379Z" fill="#349EFF"/>
<path opacity="0.1" d="M37.9121 200C51.0363 200 61.6756 198.291 61.6756 196.183C61.6756 194.075 51.0363 192.366 37.9121 192.366C24.7879 192.366 14.1487 194.075 14.1487 196.183C14.1487 198.291 24.7879 200 37.9121 200Z" fill="#349EFF"/>
<path d="M289.243 29.0044H40.1547C38.2978 29.0044 36.7926 30.5096 36.7926 32.3665V170.551C36.7926 172.408 38.2978 173.913 40.1547 173.913H289.243C291.1 173.913 292.605 172.408 292.605 170.551V32.3665C292.605 30.5096 291.1 29.0044 289.243 29.0044Z" fill="url(#paint0_linear_17967_282027)"/>
<path d="M288.866 31.0421H40.5609C38.7041 31.0421 37.1989 32.5473 37.1989 34.4041V170.07C37.1989 171.926 38.7041 173.432 40.5609 173.432H288.866C290.723 173.432 292.228 171.926 292.228 170.07V34.4041C292.228 32.5473 290.723 31.0421 288.866 31.0421Z" fill="white"/>
<path d="M288.866 31.0421H40.5609C38.7041 31.0421 37.1989 32.5473 37.1989 34.4041V170.07C37.1989 171.926 38.7041 173.432 40.5609 173.432H288.866C290.723 173.432 292.228 171.926 292.228 170.07V34.4041C292.228 32.5473 290.723 31.0421 288.866 31.0421Z" fill="white"/>
<path opacity="0.04" d="M288.866 31.0421H40.5609C38.7041 31.0421 37.1989 32.5473 37.1989 34.4041V170.07C37.1989 171.926 38.7041 173.432 40.5609 173.432H288.866C290.723 173.432 292.228 171.926 292.228 170.07V34.4041C292.228 32.5473 290.723 31.0421 288.866 31.0421Z" fill="white"/>
<path d="M290.933 29.4081H38.4936C38.1502 29.4081 37.8209 29.5445 37.5781 29.7873C37.3353 30.0302 37.1989 30.3595 37.1989 30.7029V36.1754H292.217V30.7029C292.217 30.3613 292.082 30.0336 291.842 29.7911C291.601 29.5486 291.275 29.411 290.933 29.4081Z" fill="#5A5773"/>
<path d="M42.2914 34.5414C43.2578 34.5414 44.0411 33.7581 44.0411 32.7917C44.0411 31.8254 43.2578 31.0421 42.2914 31.0421C41.3251 31.0421 40.5417 31.8254 40.5417 32.7917C40.5417 33.7581 41.3251 34.5414 42.2914 34.5414Z" fill="white"/>
<path d="M47.0017 34.5414C47.968 34.5414 48.7514 33.7581 48.7514 32.7917C48.7514 31.8254 47.968 31.0421 47.0017 31.0421C46.0353 31.0421 45.252 31.8254 45.252 32.7917C45.252 33.7581 46.0353 34.5414 47.0017 34.5414Z" fill="white"/>
<path d="M51.7122 34.5414C52.6785 34.5414 53.4618 33.7581 53.4618 32.7917C53.4618 31.8254 52.6785 31.0421 51.7122 31.0421C50.7458 31.0421 49.9625 31.8254 49.9625 32.7917C49.9625 33.7581 50.7458 34.5414 51.7122 34.5414Z" fill="white"/>
<path opacity="0.2" d="M126.643 48.9023H58.2036V54.7113H126.643V48.9023Z" fill="#349EFF"/>
<path opacity="0.1" d="M271.224 72.1947H58.2036V161.553H271.224V72.1947Z" fill="#5A5773"/>
<path opacity="0.1" d="M182.928 78.0225H179.281V70.9377C179.281 62.9429 172.907 56.2968 164.912 56.1757C162.984 56.1554 161.071 56.5169 159.284 57.2392C157.497 57.9616 155.87 59.0305 154.497 60.3845C153.125 61.7384 152.034 63.3506 151.287 65.1281C150.541 66.9056 150.153 68.8132 150.147 70.7411V78.0225H146.508C144.9 78.0275 143.359 78.6686 142.221 79.8059C141.084 80.9432 140.443 82.4843 140.438 84.0926V113.224C140.443 114.832 141.084 116.373 142.221 117.51C143.359 118.648 144.9 119.289 146.508 119.294H182.928C184.537 119.289 186.077 118.647 187.214 117.51C188.351 116.373 188.992 114.832 188.996 113.224V84.0926C188.992 82.4845 188.351 80.9434 187.214 79.8061C186.077 78.6687 184.537 78.0275 182.928 78.0225ZM166.845 96.9595V107.393C166.848 107.946 166.642 108.479 166.267 108.885C165.892 109.29 165.377 109.539 164.826 109.579C164.538 109.592 164.251 109.547 163.981 109.447C163.711 109.346 163.465 109.191 163.256 108.992C163.048 108.794 162.882 108.555 162.769 108.29C162.656 108.025 162.597 107.74 162.597 107.452V96.9542C161.612 96.4739 160.819 95.6741 160.348 94.6852C159.876 93.6964 159.753 92.5768 160 91.5093C160.246 90.4418 160.847 89.4893 161.705 88.8072C162.562 88.1252 163.625 87.7539 164.721 87.7539C165.817 87.7539 166.88 88.1252 167.737 88.8072C168.595 89.4893 169.196 90.4418 169.442 91.5093C169.688 92.5768 169.566 93.6964 169.094 94.6852C168.622 95.6741 167.83 96.4739 166.845 96.9542V96.9595ZM175.039 78.0225H154.395V70.7411C154.395 68.0047 155.482 65.3803 157.417 63.4454C159.352 61.5104 161.976 60.4234 164.713 60.4234C167.449 60.4234 170.074 61.5104 172.009 63.4454C173.944 65.3803 175.031 68.0047 175.031 70.7411L175.039 78.0225Z" fill="black"/>
<path d="M182.928 77.4842H179.281V70.3993C179.281 62.4046 172.907 55.7584 164.912 55.6373C162.984 55.6171 161.071 55.9785 159.284 56.7009C157.497 57.4232 155.87 58.4922 154.497 59.8461C153.125 61.2001 152.034 62.8122 151.287 64.5897C150.541 66.3672 150.153 68.2749 150.147 70.2028V77.4842H146.508C144.9 77.4892 143.359 78.1303 142.221 79.2676C141.084 80.4048 140.443 81.9459 140.438 83.5543V112.685C140.443 114.294 141.084 115.835 142.221 116.972C143.359 118.109 144.9 118.75 146.508 118.755H182.928C184.537 118.75 186.077 118.109 187.214 116.972C188.351 115.834 188.992 114.293 188.996 112.685V83.5543C188.992 81.9461 188.351 80.4051 187.214 79.2677C186.077 78.1304 184.537 77.4892 182.928 77.4842ZM166.845 96.4212V106.855C166.848 107.407 166.642 107.94 166.267 108.346C165.892 108.752 165.377 109 164.826 109.04C164.538 109.054 164.251 109.009 163.981 108.908C163.711 108.807 163.465 108.653 163.256 108.454C163.048 108.255 162.882 108.016 162.769 107.752C162.656 107.487 162.597 107.202 162.597 106.914V96.4158C161.612 95.9356 160.819 95.1357 160.348 94.1469C159.876 93.158 159.753 92.0385 160 90.9709C160.246 89.9034 160.847 88.9509 161.705 88.2689C162.562 87.5868 163.625 87.2155 164.721 87.2155C165.817 87.2155 166.88 87.5868 167.737 88.2689C168.595 88.9509 169.196 89.9034 169.442 90.9709C169.688 92.0385 169.566 93.158 169.094 94.1469C168.622 95.1357 167.83 95.9356 166.845 96.4158V96.4212ZM175.039 77.4842H154.395V70.2028C154.395 67.4663 155.482 64.842 157.417 62.907C159.352 60.9721 161.976 59.885 164.713 59.885C167.449 59.885 170.074 60.9721 172.009 62.907C173.944 64.842 175.031 67.4663 175.031 70.2028L175.039 77.4842Z" fill="#349EFF"/>
<path opacity="0.1" d="M271.224 63.5944H249.662V68.6846H271.224V63.5944Z" fill="#5A5773"/>
<path d="M38.6772 123.068H37.1482V157.496H38.6772V123.068Z" fill="#535461"/>
<path d="M48.2871 157.391L48.1902 158.942L48.0556 161.13L47.9991 162.043L47.8645 164.234L47.8053 165.146L47.6707 167.335L46.1283 192.226C46.0625 193.297 45.5906 194.303 44.8088 195.038C44.027 195.774 42.9942 196.183 41.9209 196.183H33.9047C32.8317 196.183 31.7992 195.773 31.0179 195.038C30.2365 194.303 29.7652 193.297 29.7001 192.226L28.1496 167.335L28.015 165.146L27.9584 164.234L27.8265 162.037L27.77 161.125L27.6354 158.936L27.5385 157.386C27.5201 157.088 27.5629 156.79 27.6642 156.509C27.7655 156.229 27.9231 155.972 28.1274 155.755C28.3317 155.538 28.5783 155.365 28.852 155.247C29.1257 155.129 29.4208 155.068 29.7189 155.068H46.1094C46.4079 155.068 46.7033 155.129 46.9773 155.247C47.2513 155.366 47.498 155.539 47.7021 155.757C47.9063 155.975 48.0636 156.232 48.1642 156.513C48.2648 156.794 48.3066 157.093 48.2871 157.391Z" fill="#3F3D56"/>
<path d="M48.1888 158.942L48.0542 161.13H27.7659L27.6313 158.942H48.1888Z" fill="#9D9CB5"/>
<path d="M47.9984 162.043L47.8638 164.234H27.9605L27.8232 162.043H47.9984Z" fill="#9D9CB5"/>
<path d="M47.8048 165.146L47.6702 167.335H28.1544L28.0172 165.146H47.8048Z" fill="#9D9CB5"/>
<path d="M25.2984 135.972C34.203 142.414 37.9123 152.492 37.9123 152.492C37.9123 152.492 27.18 152.123 18.262 145.682C9.34395 139.24 5.64807 129.162 5.64807 129.162C5.64807 129.162 16.3912 129.531 25.2984 135.972Z" fill="#349EFF"/>
<path d="M5.66101 129.162C5.66101 129.162 16.7998 135.353 20.3718 140.468C23.9439 145.582 37.9118 152.495 37.9118 152.495" stroke="#535461" stroke-width="2" stroke-miterlimit="10"/>
<path d="M31.0458 123.006C35.8911 126.505 37.9127 131.996 37.9127 131.996C37.9127 131.996 32.0714 131.797 27.2234 128.29C22.3754 124.782 20.3593 119.299 20.3593 119.299C20.3593 119.299 26.2005 119.485 31.0458 123.006Z" fill="#349EFF"/>
<path d="M20.3593 119.286C20.3593 119.286 26.4213 122.65 28.3648 125.436C30.3082 128.222 37.9127 131.983 37.9127 131.983" stroke="#535461" stroke-width="2" stroke-miterlimit="10"/>
<path d="M44.9565 131.706C39.3871 137.824 38.2108 145.819 38.2108 145.819C38.2108 145.819 46.0601 143.894 51.6268 137.776C57.1935 131.657 58.3726 123.66 58.3726 123.66C58.3726 123.66 50.5232 125.584 44.9565 131.706Z" fill="#349EFF"/>
<path d="M58.3726 123.66C58.3726 123.66 51.1208 129.932 49.2769 134.255C47.433 138.578 38.2108 145.83 38.2108 145.83" stroke="#535461" stroke-width="2" stroke-miterlimit="10"/>
</g>
<defs>
<linearGradient id="paint0_linear_17967_282027" x1="164.697" y1="173.913" x2="164.697" y2="29.0044" gradientUnits="userSpaceOnUse">
<stop stop-color="#808080" stop-opacity="0.25"/>
<stop offset="0.54" stop-color="#808080" stop-opacity="0.12"/>
<stop offset="1" stop-color="#808080" stop-opacity="0.1"/>
</linearGradient>
</defs>
</svg>
