<svg width="320" height="200" viewBox="0 0 320 200" fill="none" xmlns="http://www.w3.org/2000/svg">
<mask id="mask0_11073_10201" style="mask-type:alpha" maskUnits="userSpaceOnUse" x="0" y="0" width="320" height="200">
<rect width="320" height="200" fill="#C4C4C4"/>
</mask>
<g mask="url(#mask0_11073_10201)">
<path opacity="0.1" d="M135.438 159.985C152.106 160.569 167.981 166.012 183.14 171.967C198.299 177.921 213.313 184.516 229.582 187.67C240.046 189.699 252.014 189.988 260.443 184.32C268.559 178.851 271.18 169.435 272.589 160.691C273.65 154.112 274.273 147.186 271.368 141.026C269.349 136.749 265.769 133.155 263.292 129.058C254.672 114.805 260.765 97.2293 270.104 83.3127C274.482 76.7855 279.568 70.55 282.95 63.6087C286.332 56.6674 287.895 48.6868 284.936 41.5865C282.005 34.554 275.018 29.2823 267.449 25.5707C252.076 18.0303 233.968 15.8736 216.298 14.6494C175 14.6494 165.206 29.3253 126 30.5C111.49 30.9324 69.5995 15.1626 55.3266 17.4312C47.3994 18.6918 39.2173 20.6922 33.4613 25.5212C26.1574 31.6499 24.3469 42.0267 29.2427 49.7104C37.4532 62.6033 60.1478 65.8044 65.8935 79.6376C69.051 87.2535 65.8086 95.7342 61.2166 102.795C51.3682 117.947 34.8623 131.238 33.9944 148.554C33.3969 160.446 41.3318 172.357 53.6011 177.986C66.4601 183.885 84.2949 183.143 93.7776 173.378C103.551 163.335 120.719 159.467 135.438 159.985Z" fill="#349EFF"/>
<path d="M95.9016 115.658H85.3511V84.4931C85.3511 82.8378 84.6955 81.2503 83.5287 80.0798C82.3618 78.9094 80.7792 78.2518 79.129 78.2518H76.6568C75.8397 78.2518 75.0306 78.4133 74.2757 78.7269C73.5208 79.0406 72.8349 79.5003 72.2572 80.0798C71.6794 80.6594 71.2211 81.3474 70.9084 82.1046C70.5957 82.8619 70.4348 83.6734 70.4348 84.4931V115.658H40.6752C40.063 115.658 39.4612 115.499 38.9281 115.197C38.3951 114.895 37.9489 114.46 37.6329 113.934C37.3169 113.408 37.1418 112.809 37.1246 112.195C37.1074 111.581 37.2486 110.973 37.5346 110.43L69.0318 50.6322C69.4244 49.8866 69.6625 49.069 69.7314 48.2287C69.8004 47.3883 69.6989 46.5427 69.4331 45.7428C69.1672 44.9429 68.7426 44.2053 68.1847 43.5745C67.6268 42.9438 66.9473 42.433 66.1872 42.0729L64.3279 41.1922C62.8841 40.5083 61.2335 40.4074 59.7176 40.9102C58.2017 41.413 56.9365 42.4811 56.1838 43.8935L17.7688 115.977C17.1147 117.205 16.7725 118.575 16.7725 119.967C16.7725 121.079 16.9907 122.179 17.4147 123.206C17.8387 124.233 18.4602 125.166 19.2436 125.951C20.0271 126.737 20.9571 127.361 21.9808 127.786C23.0044 128.211 24.1015 128.43 25.2095 128.43H70.4348V148.137C70.4348 149.119 70.6277 150.092 71.0025 151C71.3773 151.907 71.9266 152.732 72.6192 153.427C73.3117 154.121 74.1339 154.672 75.0388 155.048C75.9436 155.424 76.9135 155.618 77.8929 155.618H77.8929C78.8723 155.618 79.8422 155.424 80.747 155.048C81.6519 154.672 82.4741 154.121 83.1666 153.427C83.8592 152.732 84.4085 151.907 84.7833 151C85.1581 150.092 85.3511 149.119 85.3511 148.137V128.43H95.9016C97.5902 128.43 99.2096 127.757 100.404 126.56C101.598 125.362 102.268 123.738 102.268 122.044C102.268 120.35 101.598 118.726 100.404 117.528C99.2096 116.33 97.5902 115.658 95.9016 115.658Z" fill="#349EFF"/>
<path d="M291.269 115.658H280.718V84.4931C280.718 82.8378 280.063 81.2503 278.896 80.0798C277.729 78.9094 276.146 78.2518 274.496 78.2518H272.024C271.207 78.2518 270.398 78.4133 269.643 78.7269C268.888 79.0406 268.202 79.5003 267.624 80.0798C267.047 80.6594 266.588 81.3474 266.276 82.1046C265.963 82.8619 265.802 83.6734 265.802 84.4931V115.658H236.042C235.43 115.658 234.828 115.499 234.295 115.197C233.762 114.895 233.316 114.46 233 113.934C232.684 113.408 232.509 112.809 232.492 112.195C232.475 111.581 232.616 110.973 232.902 110.43L264.399 50.6322C264.792 49.8867 265.03 49.069 265.099 48.2287C265.168 47.3884 265.066 46.5427 264.8 45.7428C264.534 44.9429 264.11 44.2053 263.552 43.5745C262.994 42.9438 262.315 42.433 261.554 42.0729L259.695 41.1922C258.251 40.5083 256.601 40.4074 255.085 40.9102C253.569 41.413 252.304 42.4811 251.551 43.8935L213.136 115.977C212.482 117.205 212.14 118.575 212.14 119.967C212.14 122.212 213.029 124.364 214.611 125.951C216.193 127.539 218.339 128.43 220.577 128.43H265.802V148.137C265.802 150.121 266.588 152.024 267.986 153.427C269.385 154.83 271.282 155.618 273.26 155.618C275.238 155.618 277.135 154.83 278.534 153.427C279.932 152.024 280.718 150.121 280.718 148.137V128.43H291.269C292.957 128.43 294.577 127.757 295.771 126.56C296.965 125.362 297.635 123.738 297.635 122.044C297.635 120.35 296.965 118.726 295.771 117.528C294.577 116.33 292.957 115.658 291.269 115.658Z" fill="#349EFF"/>
<path d="M98.8118 112.008H88.2612V80.8436C88.2612 80.024 88.1003 79.2124 87.7876 78.4552C87.4749 77.698 87.0166 77.01 86.4388 76.4304C85.861 75.8509 85.1751 75.3911 84.4202 75.0775C83.6653 74.7638 82.8563 74.6024 82.0392 74.6024H79.567C77.9168 74.6024 76.3342 75.26 75.1673 76.4304C74.0004 77.6009 73.3449 79.1884 73.3449 80.8436V112.008H43.5854C42.9732 112.008 42.3713 111.849 41.8383 111.547C41.3053 111.245 40.8591 110.81 40.5431 110.284C40.2271 109.758 40.052 109.159 40.0347 108.545C40.0175 107.932 40.1588 107.324 40.4448 106.781L71.9419 46.9828C72.3346 46.2373 72.5726 45.4196 72.6416 44.5793C72.7106 43.7389 72.6091 42.8933 72.3432 42.0934C72.0774 41.2935 71.6527 40.5559 71.0949 39.9251C70.537 39.2944 69.8575 38.7836 69.0974 38.4235L67.238 37.5428C65.7943 36.8589 64.1437 36.7579 62.6278 37.2608C61.1118 37.7636 59.8466 38.8317 59.0939 40.2441L20.679 112.328C20.0249 113.556 19.6826 114.926 19.6826 116.318V116.318C19.6826 118.562 20.5715 120.715 22.1538 122.302C23.736 123.889 25.882 124.781 28.1196 124.781H73.3449V144.487C73.3449 145.47 73.5378 146.442 73.9126 147.35C74.2874 148.258 74.8368 149.082 75.5294 149.777C76.2219 150.472 77.0441 151.023 77.9489 151.399C78.8538 151.775 79.8236 151.968 80.803 151.968H80.8031C82.7811 151.968 84.6781 151.18 86.0768 149.777C87.4754 148.374 88.2612 146.471 88.2612 144.487V124.781H98.8117C99.6478 124.781 100.476 124.616 101.248 124.295C102.021 123.974 102.722 123.503 103.314 122.91C103.905 122.317 104.374 121.613 104.694 120.838C105.014 120.064 105.178 119.233 105.178 118.394V118.394C105.178 117.556 105.014 116.725 104.694 115.95C104.374 115.176 103.905 114.472 103.314 113.879C102.723 113.286 102.021 112.815 101.248 112.494C100.476 112.173 99.6479 112.008 98.8118 112.008V112.008Z" stroke="#43536D" stroke-miterlimit="10"/>
<path d="M296.726 112.008H286.175V80.8436C286.175 79.1884 285.52 77.6009 284.353 76.4304C283.186 75.26 281.603 74.6024 279.953 74.6024H277.481C276.664 74.6024 275.855 74.7638 275.1 75.0775C274.345 75.3911 273.659 75.8509 273.081 76.4304C272.504 77.01 272.045 77.698 271.733 78.4552C271.42 79.2124 271.259 80.024 271.259 80.8436V112.008H241.499C240.887 112.008 240.285 111.849 239.752 111.547C239.219 111.245 238.773 110.81 238.457 110.284C238.141 109.758 237.966 109.159 237.949 108.545C237.932 107.932 238.073 107.324 238.359 106.781L269.856 46.9828C270.249 46.2373 270.487 45.4196 270.556 44.5793C270.625 43.7389 270.523 42.8933 270.257 42.0934C269.991 41.2935 269.567 40.5559 269.009 39.9251C268.451 39.2944 267.772 38.7836 267.011 38.4235L265.152 37.5428C263.708 36.8589 262.058 36.7579 260.542 37.2608C259.026 37.7636 257.761 38.8317 257.008 40.2441L218.593 112.328C217.939 113.556 217.597 114.926 217.597 116.318C217.597 118.562 218.486 120.715 220.068 122.302C221.65 123.889 223.796 124.781 226.034 124.781H271.259V144.487C271.259 146.471 272.045 148.374 273.443 149.777C274.842 151.18 276.739 151.968 278.717 151.968V151.968C280.695 151.968 282.592 151.18 283.991 149.777C285.389 148.374 286.175 146.471 286.175 144.487V124.781H296.726C297.562 124.781 298.39 124.616 299.162 124.295C299.935 123.974 300.637 123.503 301.228 122.91C301.819 122.317 302.288 121.613 302.608 120.838C302.928 120.064 303.092 119.233 303.092 118.394V118.394C303.093 116.701 302.422 115.076 301.228 113.879C300.034 112.681 298.414 112.008 296.726 112.008V112.008Z" stroke="#43536D" stroke-miterlimit="10"/>
<path d="M306.896 148.501C306.364 145.787 308.666 143.382 310.94 141.819C313.213 140.255 315.87 138.719 316.646 136.065C317.761 132.252 314.44 128.76 311.855 125.748C309.937 123.513 308.29 121.058 306.949 118.434C306.411 117.382 305.917 116.282 305.775 115.109C305.572 113.418 306.113 111.736 306.658 110.124C308.475 104.753 310.418 99.4268 312.486 94.1456" stroke="#43536D" stroke-miterlimit="10"/>
<path d="M299.45 111.498C300.35 111.826 301.313 111.94 302.263 111.831C303.214 111.722 304.127 111.392 304.929 110.869C305.732 110.346 306.402 109.643 306.887 108.816C307.373 107.988 307.66 107.059 307.726 106.102C307.792 105.144 307.636 104.184 307.269 103.297C306.903 102.41 306.336 101.621 305.613 100.992C304.89 100.362 304.032 99.91 303.105 99.6702C302.179 99.4304 301.209 99.4097 300.273 99.6099L300.428 102.8L298.923 100.066C297.446 100.762 296.305 102.018 295.751 103.557C295.554 104.097 295.434 104.661 295.395 105.234C295.3 106.578 295.645 107.917 296.377 109.047C297.108 110.178 298.187 111.038 299.45 111.498Z" fill="#BEC7DA"/>
<path d="M306.141 93.0439C306.494 92.067 307.086 91.1949 307.864 90.508C308.641 89.821 309.578 89.3414 310.589 89.1133L311.098 92.1463L312.041 88.9608C313.351 88.9803 314.62 89.4168 315.667 90.2073C316.713 90.9977 317.482 92.1013 317.862 93.3586C318.242 94.6159 318.214 95.9619 317.782 97.2023C317.35 98.4427 316.536 99.5132 315.458 100.259C314.38 101.006 313.093 101.389 311.784 101.354C310.474 101.318 309.21 100.867 308.173 100.064C307.137 99.2608 306.381 98.1481 306.016 96.8863C305.65 95.6246 305.694 94.279 306.141 93.0439H306.141Z" fill="#BEC7DA"/>
<path d="M310.771 125.81C312.197 126.329 313.764 126.303 315.173 125.738C316.582 125.172 317.734 124.107 318.41 122.744C319.085 121.381 319.238 119.817 318.838 118.349C318.437 116.881 317.513 115.611 316.24 114.783L315.515 117.231L315.001 114.162C314.996 114.16 314.99 114.158 314.985 114.156C314.222 113.878 313.412 113.754 312.601 113.79C311.79 113.826 310.994 114.022 310.259 114.366C309.523 114.711 308.863 115.198 308.315 115.799C307.767 116.399 307.343 117.103 307.066 117.868C306.789 118.634 306.665 119.446 306.702 120.26C306.738 121.073 306.934 121.871 307.278 122.609C307.622 123.346 308.107 124.009 308.707 124.558C309.306 125.107 310.007 125.532 310.771 125.81H310.771Z" fill="#BEC7DA"/>
<path d="M299.705 110.676C300.604 111.004 301.567 111.118 302.518 111.009C303.469 110.9 304.382 110.571 305.184 110.048C305.986 109.525 306.657 108.822 307.142 107.994C307.627 107.167 307.915 106.238 307.981 105.28C308.047 104.322 307.891 103.362 307.524 102.476C307.157 101.589 306.59 100.8 305.868 100.17C305.145 99.5411 304.287 99.0886 303.36 98.8488C302.433 98.6089 301.464 98.5883 300.528 98.7884L300.683 101.979L299.178 99.2446C297.701 99.9407 296.56 101.196 296.006 102.736C295.809 103.275 295.689 103.84 295.65 104.413C295.555 105.757 295.9 107.096 296.631 108.226C297.363 109.356 298.442 110.216 299.705 110.676V110.676Z" stroke="#43536D" stroke-miterlimit="10"/>
<path d="M306.48 91.9487C306.833 90.9718 307.425 90.0997 308.203 89.4127C308.98 88.7258 309.917 88.2462 310.928 88.0181L311.436 91.0511L312.38 87.8656C313.689 87.8851 314.959 88.3216 316.005 89.112C317.052 89.9025 317.82 91.0061 318.201 92.2634C318.581 93.5207 318.553 94.8667 318.121 96.1071C317.689 97.3474 316.875 98.418 315.797 99.1641C314.719 99.9103 313.432 100.293 312.123 100.258C310.813 100.223 309.549 99.7715 308.512 98.9685C307.475 98.1656 306.72 97.0529 306.355 95.7911C305.989 94.5294 306.033 93.1838 306.48 91.9487H306.48Z" stroke="#43536D" stroke-miterlimit="10"/>
<path d="M311.065 124.7C312.491 125.219 314.058 125.194 315.467 124.628C316.876 124.063 318.028 122.997 318.704 121.635C319.379 120.272 319.532 118.708 319.132 117.239C318.731 115.771 317.807 114.502 316.534 113.674L315.809 116.122L315.295 113.053C315.29 113.051 315.284 113.049 315.279 113.047C314.516 112.769 313.706 112.644 312.895 112.681C312.084 112.717 311.288 112.912 310.553 113.257C309.817 113.602 309.157 114.089 308.609 114.689C308.061 115.29 307.636 115.993 307.36 116.759C307.083 117.524 306.959 118.337 306.995 119.15C307.032 119.964 307.228 120.762 307.572 121.5C307.916 122.237 308.401 122.899 309.001 123.449C309.6 123.998 310.301 124.423 311.065 124.7H311.065Z" stroke="#43536D" stroke-miterlimit="10"/>
<path d="M304.337 136.103C304.582 137.503 305.3 138.776 306.37 139.708C307.439 140.64 308.796 141.175 310.212 141.223C311.628 141.271 313.018 140.829 314.148 139.971C315.277 139.113 316.079 137.892 316.417 136.511C316.756 135.131 316.611 133.676 316.007 132.391C315.403 131.105 314.377 130.067 313.1 129.45C311.824 128.833 310.375 128.675 308.996 129.003C307.617 129.33 306.393 130.124 305.528 131.25L308.281 135.406L304.519 133.2C304.228 134.139 304.165 135.135 304.337 136.103Z" fill="#CEE8FF"/>
<path d="M304.592 135.282C304.837 136.682 305.555 137.955 306.625 138.887C307.694 139.819 309.051 140.354 310.467 140.401C311.883 140.449 313.273 140.007 314.402 139.149C315.532 138.292 316.334 137.07 316.672 135.69C317.011 134.31 316.866 132.855 316.262 131.569C315.658 130.284 314.632 129.245 313.355 128.628C312.079 128.012 310.63 127.854 309.251 128.181C307.872 128.509 306.648 129.302 305.783 130.428L308.536 134.585L304.774 132.379C304.482 133.318 304.42 134.314 304.592 135.282Z" fill="#BEC7DA" stroke="#3F3D56" stroke-miterlimit="10"/>
<path d="M3.17421 126.597C3.76515 126.813 4.39791 126.888 5.02262 126.816C5.64734 126.744 6.24692 126.528 6.77411 126.184C7.3013 125.841 7.7417 125.379 8.06058 124.835C8.37946 124.291 8.56812 123.681 8.61167 123.052C8.65523 122.423 8.5525 121.792 8.31157 121.209C8.07065 120.627 7.69812 120.108 7.22335 119.695C6.74858 119.281 6.18454 118.984 5.5757 118.826C4.96685 118.669 4.32985 118.655 3.71488 118.787L3.81651 120.883L2.82783 119.086C1.8575 119.544 1.10787 120.369 0.743694 121.38C0.614359 121.735 0.535732 122.105 0.510161 122.482C0.447755 123.365 0.674064 124.245 1.15479 124.987C1.63552 125.73 2.34447 126.295 3.17421 126.597Z" fill="#BEC7DA"/>
<path d="M8.06661 150.909C7.7176 149.126 9.22991 147.546 10.7237 146.519C12.2175 145.491 13.963 144.482 14.4727 142.739C15.2052 140.233 13.0232 137.939 11.325 135.96C10.065 134.492 8.98301 132.879 8.1016 131.155C7.71841 130.478 7.45741 129.738 7.33062 128.97C7.19671 127.859 7.55241 126.754 7.91076 125.695C9.10453 122.166 10.3809 118.666 11.7398 115.197" stroke="#43536D" stroke-miterlimit="10"/>
<path d="M3.34218 126.058C3.93312 126.273 4.56588 126.348 5.19059 126.276C5.8153 126.205 6.41489 125.988 6.94208 125.645C7.46927 125.301 7.90966 124.839 8.22854 124.296C8.54742 123.752 8.73608 123.141 8.77963 122.512C8.82319 121.883 8.72046 121.252 8.47954 120.67C8.23861 120.087 7.86608 119.569 7.39131 119.155C6.91654 118.742 6.35251 118.444 5.74367 118.287C5.13482 118.129 4.49782 118.116 3.88285 118.247L3.98448 120.343L2.9958 118.547C2.02547 119.004 1.27584 119.829 0.911663 120.841C0.782329 121.195 0.703704 121.566 0.678131 121.942C0.615721 122.826 0.842028 123.705 1.32276 124.448C1.80349 125.19 2.51244 125.756 3.34218 126.058V126.058Z" stroke="#43536D" stroke-miterlimit="10"/>
<path d="M7.79326 113.753C8.02517 113.111 8.4144 112.538 8.92509 112.087C9.43577 111.636 10.0515 111.321 10.7155 111.171L11.0498 113.163L11.6695 111.071C12.53 111.083 13.3642 111.37 14.0517 111.889C14.7391 112.409 15.2442 113.134 15.494 113.96C15.7439 114.786 15.7255 115.67 15.4417 116.485C15.1578 117.3 14.6231 118.004 13.9147 118.494C13.2064 118.984 12.361 119.236 11.5007 119.213C10.6404 119.19 9.8097 118.893 9.1285 118.365C8.4473 117.838 7.95086 117.107 7.71086 116.278C7.47086 115.449 7.49971 114.565 7.79326 113.753Z" fill="#BEC7DA" stroke="#43536D" stroke-miterlimit="10"/>
<path d="M10.6119 136.001C11.5491 136.342 12.5786 136.325 13.5041 135.953C14.4297 135.582 15.1867 134.882 15.6308 133.986C16.0748 133.091 16.1749 132.063 15.912 131.099C15.649 130.134 15.0414 129.3 14.205 128.756L13.7288 130.364L13.3911 128.348C13.3878 128.347 13.3843 128.345 13.3808 128.344C12.8795 128.161 12.3472 128.079 11.8143 128.103C11.2814 128.127 10.7584 128.255 10.2751 128.482C9.79185 128.708 9.3578 129.028 8.99779 129.423C8.63777 129.818 8.35884 130.28 8.17694 130.783C7.99505 131.286 7.91375 131.82 7.93768 132.354C7.96162 132.889 8.09034 133.413 8.31647 133.898C8.5426 134.382 8.86171 134.817 9.25557 135.178C9.64943 135.539 10.1103 135.818 10.6119 136.001Z" fill="#BEC7DA"/>
<path d="M10.8052 135.272C11.7424 135.613 12.7719 135.596 13.6975 135.224C14.6231 134.853 15.38 134.153 15.8241 133.257C16.2682 132.362 16.3683 131.334 16.1053 130.37C15.8424 129.405 15.2348 128.571 14.3983 128.027L13.9221 129.635L13.5844 127.619C13.5811 127.618 13.5776 127.616 13.5741 127.615C13.0729 127.433 12.5408 127.351 12.0082 127.375C11.4756 127.399 10.9529 127.528 10.47 127.755C9.49464 128.212 8.74041 129.04 8.37324 130.055C8.00606 131.07 8.05601 132.19 8.51209 133.168C8.96817 134.147 9.79303 134.903 10.8052 135.272V135.272Z" stroke="#43536D" stroke-miterlimit="10"/>
<path d="M6.55261 142.224C6.71374 143.144 7.18525 143.98 7.88806 144.592C8.59086 145.205 9.48222 145.556 10.4126 145.588C11.3431 145.619 12.256 145.329 12.9982 144.765C13.7405 144.201 14.267 143.399 14.4895 142.492C14.712 141.585 14.6168 140.629 14.22 139.785C13.8233 138.94 13.149 138.258 12.3103 137.852C11.4716 137.447 10.5195 137.343 9.61358 137.559C8.70772 137.774 7.90321 138.295 7.33497 139.035L9.14385 141.766L6.67224 140.316C6.4806 140.934 6.43957 141.588 6.55261 142.224Z" fill="#BEC7DA" stroke="#43536D" stroke-miterlimit="10"/>
<path d="M135 94.5357C135 124.614 144.234 135.015 161.908 135.015C179.582 135.015 189.572 123.856 189.572 94.5357C189.572 63.1933 179.96 54 162.286 54C144.612 54 135 67.9957 135 94.5357Z" fill="white"/>
<path d="M156.021 43.2843C130.503 43.2843 112.182 59.7063 112.182 98.0244C112.182 141.451 130.503 152.947 156.021 152.947C181.539 152.947 200.952 140.357 200.952 98.0244C200.952 52.7726 181.539 43.2843 156.021 43.2843ZM156.189 138.532C138.514 138.532 129.281 128.131 129.281 98.0524C129.281 71.5125 138.892 57.5167 156.567 57.5167C174.241 57.5167 183.853 66.71 183.853 98.0524C183.853 127.373 173.863 138.532 156.189 138.532Z" fill="#233047"/>
<path d="M161.841 40C136.323 40 118.002 56.422 118.002 94.7401C118.002 138.167 136.323 149.663 161.841 149.663C187.359 149.663 206.772 137.072 206.772 94.7401C206.772 49.4883 187.359 40 161.841 40Z" stroke="#43536D" stroke-miterlimit="10"/>
<path d="M144.298 95.1379C147.086 95.1379 149.346 92.2043 149.346 88.5857C149.346 84.967 147.086 82.0334 144.298 82.0334C141.511 82.0334 139.251 84.967 139.251 88.5857C139.251 92.2043 141.511 95.1379 144.298 95.1379Z" fill="#233047"/>
<path d="M171.762 95.2868C174.55 95.2868 176.81 92.3533 176.81 88.7346C176.81 85.1159 174.55 82.1824 171.762 82.1824C168.975 82.1824 166.715 85.1159 166.715 88.7346C166.715 92.3533 168.975 95.2868 171.762 95.2868Z" fill="#233047"/>
<path d="M167.903 108.093C167.903 111.054 163.782 113.454 158.698 113.454C153.615 113.454 149.494 111.054 149.494 108.093C149.494 105.529 152.585 103.385 156.715 102.86C157.373 102.773 158.035 102.731 158.698 102.732C159.81 102.729 160.918 102.849 162.003 103.09C165.453 103.861 167.903 105.812 167.903 108.093Z" fill="#233047"/>
<path d="M145.486 93.6487C148.274 93.6487 150.533 90.7152 150.533 87.0965C150.533 83.4778 148.274 80.5443 145.486 80.5443C142.698 80.5443 140.438 83.4778 140.438 87.0965C140.438 90.7152 142.698 93.6487 145.486 93.6487Z" stroke="#43536D" stroke-miterlimit="10"/>
<path d="M172.951 93.7976C175.738 93.7976 177.998 90.8641 177.998 87.2454C177.998 83.6268 175.738 80.6932 172.951 80.6932C170.163 80.6932 167.903 83.6268 167.903 87.2454C167.903 90.8641 170.163 93.7976 172.951 93.7976Z" stroke="#43536D" stroke-miterlimit="10"/>
<path d="M159.886 111.965C164.969 111.965 169.09 109.565 169.09 106.604C169.09 103.643 164.969 101.243 159.886 101.243C154.803 101.243 150.682 103.643 150.682 106.604C150.682 109.565 154.803 111.965 159.886 111.965Z" stroke="#43536D" stroke-miterlimit="10"/>
<path d="M162.114 103.537C162.116 103.911 161.976 104.272 161.722 104.547C161.602 104.678 161.456 104.783 161.293 104.856C161.131 104.928 160.955 104.965 160.778 104.966H157.808C157.443 104.953 157.097 104.796 156.846 104.528C156.596 104.26 156.461 103.904 156.472 103.537C156.471 103.246 156.556 102.962 156.716 102.72C157.373 102.627 158.036 102.582 158.699 102.584C159.812 102.58 160.921 102.708 162.004 102.965C162.077 103.146 162.114 103.341 162.114 103.537Z" fill="white"/>
<path d="M145.487 86.7987C146.306 86.7987 146.971 86.132 146.971 85.3096C146.971 84.4871 146.306 83.8204 145.487 83.8204C144.667 83.8204 144.002 84.4871 144.002 85.3096C144.002 86.132 144.667 86.7987 145.487 86.7987Z" fill="white"/>
<path d="M173.099 86.7987C173.919 86.7987 174.583 86.132 174.583 85.3096C174.583 84.4871 173.919 83.8204 173.099 83.8204C172.279 83.8204 171.614 84.4871 171.614 85.3096C171.614 86.132 172.279 86.7987 173.099 86.7987Z" fill="white"/>
<path d="M174.584 100.797C175.404 100.797 176.069 100.13 176.069 99.3074C176.069 98.4849 175.404 97.8182 174.584 97.8182C173.764 97.8182 173.1 98.4849 173.1 99.3074C173.1 100.13 173.764 100.797 174.584 100.797Z" fill="#CEE8FF"/>
<path d="M138.361 100.797C139.18 100.797 139.845 100.13 139.845 99.3074C139.845 98.4849 139.18 97.8182 138.361 97.8182C137.541 97.8182 136.876 98.4849 136.876 99.3074C136.876 100.13 137.541 100.797 138.361 100.797Z" fill="#CEE8FF"/>
</g>
</svg>
