<svg width="320" height="200" viewBox="0 0 320 200" fill="none" xmlns="http://www.w3.org/2000/svg">
<mask id="mask0_11073_8931" style="mask-type:alpha" maskUnits="userSpaceOnUse" x="0" y="0" width="320" height="200">
<rect width="320" height="200" fill="#C4C4C4"/>
</mask>
<g mask="url(#mask0_11073_8931)">
<path opacity="0.07" d="M147.262 36.5202C163.673 35.9467 179.304 30.5958 194.23 24.7431C209.155 18.8904 223.939 12.4079 239.958 9.30742C250.261 7.31299 262.045 7.02881 270.344 12.5999C278.335 17.9764 280.916 27.2316 282.303 35.8263C283.348 42.2935 283.962 49.1011 281.101 55.1561C279.113 59.36 275.588 62.8931 273.149 66.9204C264.662 80.93 270.661 98.2064 279.856 111.886C284.167 118.302 289.175 124.431 292.505 131.254C295.834 138.077 297.373 145.922 294.46 152.901C291.574 159.813 284.694 164.995 277.242 168.644C262.105 176.055 244.276 178.175 226.878 179.379C188.377 182.036 149.673 180.887 111.071 179.732C96.7841 179.307 82.4365 178.874 68.3831 176.644C60.5779 175.405 52.5217 173.439 46.8542 168.692C39.6627 162.668 37.88 152.468 42.7005 144.915C50.7847 132.242 73.1301 129.096 78.7875 115.498C81.8964 108.012 78.7038 99.676 74.1825 92.7352C64.4856 77.8423 48.2336 64.7775 47.3791 47.757C46.7908 36.067 54.6036 24.359 66.6841 18.8264C79.3454 13.0274 96.9058 13.7571 106.243 23.3554C115.866 33.2277 132.77 37.0296 147.262 36.5202Z" fill="#349EFF"/>
<mask id="mask1_11073_8931" style="mask-type:alpha" maskUnits="userSpaceOnUse" x="40" y="8" width="256" height="173">
<path d="M147.262 36.5202C163.673 35.9467 179.304 30.5958 194.23 24.7431C209.155 18.8904 223.939 12.4079 239.958 9.30742C250.261 7.31299 262.045 7.02881 270.344 12.5999C278.335 17.9764 280.916 27.2316 282.303 35.8263C283.348 42.2935 283.962 49.1011 281.101 55.1561C279.113 59.36 275.588 62.8931 273.149 66.9204C264.662 80.93 270.661 98.2064 279.856 111.886C284.167 118.302 289.175 124.431 292.505 131.254C295.834 138.077 297.373 145.922 294.46 152.901C291.574 159.813 284.694 164.995 277.242 168.644C262.105 176.055 244.276 178.175 226.878 179.379C188.377 182.036 149.673 180.887 111.071 179.732C96.7841 179.307 82.4365 178.874 68.3831 176.644C60.5779 175.405 52.5217 173.439 46.8542 168.692C39.6627 162.668 37.88 152.468 42.7005 144.915C50.7847 132.242 73.1301 129.096 78.7875 115.498C81.8964 108.012 78.7038 99.676 74.1825 92.7352C64.4856 77.8423 48.2336 64.7775 47.3791 47.757C46.7908 36.067 54.6036 24.359 66.6841 18.8264C79.3454 13.0274 96.9058 13.7571 106.243 23.3554C115.866 33.2277 132.77 37.0296 147.262 36.5202Z" fill="#349EFF"/>
</mask>
<g mask="url(#mask1_11073_8931)">
<path d="M83.4005 111.393C114.713 111.393 140.097 86.009 140.097 54.6964C140.097 23.3839 114.713 -2 83.4005 -2C52.088 -2 26.7041 23.3839 26.7041 54.6964C26.7041 86.009 52.088 111.393 83.4005 111.393Z" fill="white"/>
</g>
<path d="M11 20.9296C11 41.558 23.9412 58.2502 39.934 58.2502Z" fill="#2A3850"/>
<path d="M39.9341 58.2501C39.9341 37.3899 54.3758 20.5101 72.2228 20.5101Z" fill="#349EFF"/>
<path d="M21.483 22.7994C21.483 42.3943 29.7354 58.2501 39.9337 58.2501Z" fill="#349EFF"/>
<path d="M39.9341 58.25C39.9341 31.5953 56.6264 10.0266 77.2548 10.0266Z" fill="#2A3850"/>
<path d="M63.8659 127.082C91.3563 127.082 113.642 124.05 113.642 120.31C113.642 116.57 91.3563 113.538 63.8659 113.538C36.3755 113.538 14.0901 116.57 14.0901 120.31C14.0901 124.05 36.3755 127.082 63.8659 127.082Z" fill="#43536D"/>
<path d="M233.689 193.377C275.292 193.377 309.018 188.788 309.018 183.129C309.018 177.469 275.292 172.881 233.689 172.881C192.086 172.881 158.36 177.469 158.36 183.129C158.36 188.788 192.086 193.377 233.689 193.377Z" fill="#43536D"/>
<path d="M134.137 173.945C158.093 180.067 204.143 165.96 209.2 149.989" stroke="#2F2E41" stroke-miterlimit="10"/>
<path d="M93.4127 76.2569C93.4127 76.2569 128.016 66.6744 130.146 97.5514C132.275 128.428 101.664 137.212 125.621 143.334" stroke="#2F2E41" stroke-miterlimit="10"/>
<path d="M218.276 157.24L216.179 170.627C216.179 170.627 205.856 176.111 213.115 176.273C220.373 176.434 254.568 176.273 254.568 176.273C254.568 176.273 261.181 176.273 250.697 170.466L248.6 156.433L218.276 157.24Z" fill="#2A3850"/>
<path opacity="0.2" d="M211.655 176.127C213.304 174.661 216.18 173.132 216.18 173.132L218.277 159.745L248.6 159.773L250.697 172.971C253.142 174.325 254.657 175.363 255.543 176.159C256.889 175.852 258.361 174.71 250.697 170.466L248.6 156.433L218.277 157.24L216.18 170.627C216.18 170.627 207.506 175.236 211.655 176.127Z" fill="black"/>
<path d="M296.782 63.9297H169.771C167.118 63.9297 164.967 66.0802 164.967 68.7331V154.291C164.967 156.944 167.118 159.095 169.771 159.095H296.782C299.435 159.095 301.585 156.944 301.585 154.291V68.7331C301.585 66.0802 299.435 63.9297 296.782 63.9297Z" fill="#233047"/>
<path d="M296.988 69.0107H169.564V140.304H296.988V69.0107Z" fill="#349EFF"/>
<path d="M233.277 67.5591C233.723 67.5591 234.084 67.1981 234.084 66.7526C234.084 66.3072 233.723 65.9462 233.277 65.9462C232.832 65.9462 232.471 66.3072 232.471 66.7526C232.471 67.1981 232.832 67.5591 233.277 67.5591Z" fill="#F2F2F2"/>
<path d="M301.585 145.949V154.291C301.585 154.922 301.461 155.547 301.22 156.13C300.978 156.712 300.625 157.242 300.179 157.688C299.732 158.134 299.203 158.488 298.62 158.729C298.037 158.971 297.413 159.095 296.782 159.095H169.771C169.14 159.095 168.515 158.971 167.932 158.729C167.35 158.488 166.82 158.134 166.374 157.688C165.928 157.242 165.574 156.712 165.333 156.13C165.091 155.547 164.967 154.922 164.967 154.291V145.949H301.585Z" fill="#43536D"/>
<path d="M268.923 184.983V186.596H182.145V185.305L182.265 184.983L184.403 179.176H267.148L268.923 184.983Z" fill="#97A3B7"/>
<path d="M302.318 183.404C302.16 184.079 301.563 184.792 300.215 185.467C295.376 187.886 285.537 184.821 285.537 184.821C285.537 184.821 277.956 183.531 277.956 180.144C278.169 179.998 278.391 179.866 278.62 179.749C280.655 178.672 287.4 176.016 299.361 179.861C300.242 180.138 301.029 180.653 301.634 181.351C302.119 181.918 302.499 182.638 302.318 183.404Z" fill="#97A3B7"/>
<path opacity="0.2" d="M302.318 183.404C296.395 185.673 291.116 185.842 285.698 182.079C282.965 180.182 280.483 179.713 278.62 179.749C280.655 178.672 287.4 176.016 299.36 179.861C300.241 180.138 301.029 180.653 301.634 181.351C302.118 181.918 302.498 182.638 302.318 183.404Z" fill="black"/>
<path d="M294.892 182.079C296.05 182.079 296.988 181.791 296.988 181.434C296.988 181.078 296.05 180.789 294.892 180.789C293.734 180.789 292.795 181.078 292.795 181.434C292.795 181.791 293.734 182.079 294.892 182.079Z" fill="#BCC2CA"/>
<path d="M233.277 155.627C234.969 155.627 236.341 154.255 236.341 152.562C236.341 150.87 234.969 149.498 233.277 149.498C231.584 149.498 230.212 150.87 230.212 152.562C230.212 154.255 231.584 155.627 233.277 155.627Z" fill="#F2F2F2"/>
<path opacity="0.2" d="M268.923 184.983V186.596H182.145V185.305L182.265 184.983H268.923Z" fill="black"/>
<path d="M95.2745 49.639H39.909V114.055H95.2745V49.639Z" fill="#233047"/>
<path d="M100.866 43.2509H34.3204V66.1424H100.866V43.2509Z" fill="#97A3B7"/>
<path d="M100.866 70.4011H34.3204V93.2926H100.866V70.4011Z" fill="#BEC7DA"/>
<path d="M100.866 97.5515H34.3204V120.443H100.866V97.5515Z" fill="#97A3B7"/>
<path d="M83.5638 47.2434H79.3049V51.5023H83.5638V47.2434Z" fill="#37ABF0"/>
<path d="M90.4847 47.2434H86.2258V51.5023H90.4847V47.2434Z" fill="#349EFF"/>
<path d="M97.4048 47.2434H93.1459V51.5023H97.4048V47.2434Z" fill="#278CFF"/>
<path d="M83.5638 74.1277H79.3049V78.3866H83.5638V74.1277Z" fill="#37ABF0"/>
<path d="M90.4847 74.1277H86.2258V78.3866H90.4847V74.1277Z" fill="#349EFF"/>
<path d="M97.4048 74.1277H93.1459V78.3866H97.4048V74.1277Z" fill="#278CFF"/>
<path d="M83.5638 101.012H79.3049V105.271H83.5638V101.012Z" fill="#37ABF0"/>
<path d="M90.4847 101.012H86.2258V105.271H90.4847V101.012Z" fill="#349EFF"/>
<path d="M97.4048 101.012H93.1459V105.271H97.4048V101.012Z" fill="#278CFF"/>
<line x1="117.198" y1="145.997" x2="140.098" y2="168.896" stroke="#D95E6C" stroke-width="3" stroke-linecap="round"/>
<line x1="1.5" y1="-1.5" x2="33.885" y2="-1.5" transform="matrix(-0.707107 0.707107 0.707107 0.707107 141.96 145.996)" stroke="#D95E6C" stroke-width="3" stroke-linecap="round"/>
<path d="M228 87H237.628L235.929 112.203H229.699L228 87Z" fill="#F1F3F7"/>
<rect x="229.7" y="117.017" width="6.22984" height="6.22984" fill="#F1F3F7"/>
</g>
</svg>
